<svg xmlns="http://www.w3.org/2000/svg" width="45.587" height="45.587" viewBox="0 0 45.587 45.587">
  <g id="Group_266" data-name="Group 266">
    <g id="Group_265" data-name="Group 265">
      <path id="Path_111" data-name="Path 111" d="M193.954,221.466c0-17.095,5.7-22.793,22.793-22.793s22.793,5.7,22.793,22.793-5.7,22.793-22.793,22.793-22.793-5.7-22.793-22.793" transform="translate(-193.954 -198.673)" fill="#06727d"/>
    </g>
  </g>
  <g id="Group_268" data-name="Group 268" transform="translate(22.511 10.45)">
    <path id="Path_125" data-name="Path 125" d="M222.052,214.8a3.644,3.644,0,1,1,3.64,3.64A3.639,3.639,0,0,1,222.052,214.8Z" transform="translate(-221.054 -211.163)" fill="#fff"/>
    <path id="Path_126" data-name="Path 126" d="M237.429,213.769a2.639,2.639,0,0,1-.2,1l-5.966,14.4v2.407a5.2,5.2,0,0,1-10.407,0v-9.328a2.122,2.122,0,0,1,2.121-2.121h6.385l3.045-7.353a2.61,2.61,0,0,1,5.019,1Z" transform="translate(-220.859 -211.163)" fill="#fff"/>
  </g>
  <g id="Group_269" data-name="Group 269" transform="translate(6.506 14.091)">
    <path id="Path_127" data-name="Path 127" d="M216.477,218.637a3.126,3.126,0,1,0-3.122,3.122A3.122,3.122,0,0,0,216.477,218.637Z" transform="translate(-203.117 -215.514)" fill="#e8e8e8"/>
    <path id="Path_128" data-name="Path 128" d="M201.73,217.75a2.27,2.27,0,0,0,.17.857l5.119,12.352v2.065a4.463,4.463,0,0,0,8.926,0v-8a1.82,1.82,0,0,0-1.819-1.82h-5.478l-2.612-6.308a2.239,2.239,0,0,0-4.306.856Z" transform="translate(-201.73 -215.514)" fill="#e8e8e8"/>
  </g>
</svg>
